<svg xmlns="http://www.w3.org/2000/svg" version="1.1" xmlns:xlink="http://www.w3.org/1999/xlink" xmlns:svgjs="http://svgjs.com/svgjs" width="512" height="96" preserveAspectRatio="none" viewBox="0 0 512 96"><g mask="url(&quot;#SvgjsMask1120&quot;)" fill="none"><rect width="512" height="96" x="0" y="0" fill="url(#SvgjsLinearGradient1121)"></rect><path d="M209 82L208 17" stroke-width="6" stroke="url(#SvgjsLinearGradient1122)" stroke-linecap="round" class="Down"></path><path d="M491 4L490 -53" stroke-width="10" stroke="url(#SvgjsLinearGradient1123)" stroke-linecap="round" class="Up"></path><path d="M63 83L62 126" stroke-width="6" stroke="url(#SvgjsLinearGradient1123)" stroke-linecap="round" class="Up"></path><path d="M248 67L247 33" stroke-width="6" stroke="url(#SvgjsLinearGradient1123)" stroke-linecap="round" class="Up"></path><path d="M359 19L358 79" stroke-width="6" stroke="url(#SvgjsLinearGradient1122)" stroke-linecap="round" class="Down"></path><path d="M406 33L405 -7" stroke-width="6" stroke="url(#SvgjsLinearGradient1123)" stroke-linecap="round" class="Up"></path><path d="M158 61L157 3" stroke-width="10" stroke="url(#SvgjsLinearGradient1122)" stroke-linecap="round" class="Down"></path><path d="M345 25L344 -14" stroke-width="8" stroke="url(#SvgjsLinearGradient1122)" stroke-linecap="round" class="Down"></path><path d="M328 79L327 149" stroke-width="10" stroke="url(#SvgjsLinearGradient1122)" stroke-linecap="round" class="Down"></path><path d="M173 11L172 62" stroke-width="6" stroke="url(#SvgjsLinearGradient1122)" stroke-linecap="round" class="Down"></path><path d="M454 53L453 105" stroke-width="8" stroke="url(#SvgjsLinearGradient1123)" stroke-linecap="round" class="Up"></path><path d="M233 65L232 16" stroke-width="8" stroke="url(#SvgjsLinearGradient1122)" stroke-linecap="round" class="Down"></path><path d="M350 51L349 108" stroke-width="10" stroke="url(#SvgjsLinearGradient1123)" stroke-linecap="round" class="Up"></path></g><defs><mask id="SvgjsMask1120"><rect width="512" height="96" fill="#ffffff"></rect></mask><linearGradient x1="50%" y1="100%" x2="50%" y2="0%" gradientUnits="userSpaceOnUse" id="SvgjsLinearGradient1121"><stop stop-color="#0e2a47" offset="0"></stop><stop stop-color="#00459e" offset="1"></stop></linearGradient><linearGradient x1="0%" y1="0%" x2="0%" y2="100%" id="SvgjsLinearGradient1122"><stop stop-color="rgba(28, 83, 142, 0)" offset="0"></stop><stop stop-color="#1c538e" offset="1"></stop></linearGradient><linearGradient x1="0%" y1="100%" x2="0%" y2="0%" id="SvgjsLinearGradient1123"><stop stop-color="rgba(28, 83, 142, 0)" offset="0"></stop><stop stop-color="#1c538e" offset="1"></stop></linearGradient></defs></svg>